# xmcd
#
# Track frame offsets: 
#        150
#        17386
#        32691
#        48304
#        67442
#        80520
#        92622
#        102262
#        115600
#        122341
#        136078
#        148812
#        166293
#
# Disc length: 2448 seconds
#
# Revision: 5
# Processed by: cddbd v1.5.2PL0 Copyright (c) Steve Scherf et al.
# Submitted via: ExactAudioCopyFreeDBPlugin 1.0
#
DISCID=a4098e0d
DTITLE=Pino Daniele - Terra Mia
DYEAR=2004
DGENRE=Blues
TTITLE0=Napule E'
TTITLE1='na Tazzulella 'e Cafe'
TTITLE2=Ce Sta Chi Ce Penza
TTITLE3=Suonno D'ajere
TTITLE4=Maronna Mia
TTITLE5=Saglie, Saglie
TTITLE6=Terra Mia
TTITLE7=Che Calore
TTITLE8=Chi Po Dicere
TTITLE9=Furtunato
TTITLE10=Cammina Cammina
TTITLE11='o Padrone
TTITLE12=Liberta'
EXTD=\n YEAR: 2004
EXTT0=
EXTT1=
EXTT2=
EXTT3=
EXTT4=
EXTT5=
EXTT6=
EXTT7=
EXTT8=
EXTT9=
EXTT10=
EXTT11=
EXTT12=
PLAYORDER=
